<svg xmlns="http://www.w3.org/2000/svg" viewBox="0 -0.5 9 9" shape-rendering="crispEdges">
<metadata>Made with Pixels to Svg https://codepen.io/shshaw/pen/XbxvNj</metadata>
<path stroke="#76bf5d" d="M0 0h1M3 0h1M8 2h1" />
<path stroke="#62b44d" d="M1 0h1M8 0h1" />
<path stroke="#6fbc50" d="M2 0h1M4 0h1M8 1h1" />
<path stroke="#63b34d" d="M5 0h1" />
<path stroke="#5eaf4c" d="M6 0h1" />
<path stroke="#6abb4d" d="M7 0h1" />
<path stroke="#61b34d" d="M0 1h1M2 1h1M4 2h1" />
<path stroke="#66452e" d="M1 1h1M0 2h1M5 2h3M4 3h1M8 3h1M1 4h1M6 4h3M7 7h1M2 8h1M5 8h2" />
<path stroke="#51a14b" d="M3 1h1M6 1h1" />
<path stroke="#57aa4c" d="M4 1h1" />
<path stroke="#664630" d="M5 1h1" />
<path stroke="#65442d" d="M7 1h1M3 2h1" />
<path stroke="#6c6d6d" d="M1 2h1" />
<path stroke="#65452e" d="M2 2h1" />
<path stroke="#976b49" d="M0 3h1M2 3h1M6 3h2M2 4h2M4 6h2M8 6h1M0 7h1M3 7h1M5 7h1M1 8h1" />
<path stroke="#785035" d="M1 3h1M0 4h1M4 4h1M1 5h3M5 5h2M0 6h2M6 6h2M1 7h2M4 7h1M6 7h1M8 7h1M0 8h1M3 8h2M7 8h2" />
<path stroke="#be835c" d="M3 3h1M5 3h1M5 4h1M0 5h1M7 5h2M2 6h2" />
<path stroke="#6c7172" d="M4 5h1" />
</svg>