<svg data-name="Layer 1" viewBox="0 0 924 458.13">
  <path fill="var(--color-brand)"
        d="m573.26 279.26-46.78 46.17-105.72 104.32-2.14 2.11-11.92 11.76-24.99-24.69-2.2-2.17-45.69-45.13h-.01l-14.64-14.47-8.65-8.55-25.76-25.44-3.48-3.44-41.06-40.56a117.66 117.66 0 0 1-20.52-27.63 79.8 79.8 0 0 1-1.43-2.75A117.5 117.5 0 0 1 342.98 80.26h.01c.38.06.75.12 1.13.2a113.6 113.6 0 0 1 11.91 2.77 117.1 117.1 0 0 1 29.12 12.93q1.43.89 2.82 1.8a118.17 118.17 0 0 1 18.47 15.1l.35-.36.35.35a118.54 118.54 0 0 1 10.83-9.58 87.1 87.1 0 0 1 2.51-1.9 117.45 117.45 0 0 1 90.51-21.07 111.92 111.92 0 0 1 11.92 2.78q1.97.56 3.9 1.2c1.04.34 2.08.7 3.11 1.07a116.43 116.43 0 0 1 24.39 12.1q2.5 1.64 4.94 3.42a117.55 117.55 0 0 1 14.01 178.2Z" />
  <path
    d="M526.48 325.43 420.76 429.75l-2.14 2.11-11.92 11.76-24.99-24.69-2.2-2.17-45.69-45.13c7.34-1.7 18.62.64 22.75 2.68 9.79 4.83 17.84 12.76 27.78 17.28a46.14 46.14 0 0 0 28.33 3.13c17.82-3.74 31.61-17.52 43.77-31.08 12.16-13.57 24.59-28.13 41.68-34.42 9.01-3.32 18.69-4.07 28.35-3.79Z"
    opacity=".15" />
  <path fill="currentColor"
        d="M603.34 114.98a118.16 118.16 0 0 0-52.53-30.55c-1.32-.37-2.63-.7-3.96-1a116.83 116.83 0 0 0-17.39-2.8c-1.02-.1-2.04-.17-3.07-.22a115.15 115.15 0 0 0-15.43.06 118.4 118.4 0 0 0-74.84 33.45l-.36-.36-.36.36a118.61 118.61 0 0 0-46.7-28.08c-.99-.32-1.99-.63-2.99-.92a119.67 119.67 0 0 0-41.62-4.45c-.39.02-.78.05-1.16.1a118.3 118.3 0 0 0-69.4 29.4c-1.82 1.6-3.61 3.27-5.35 5.01a119.14 119.14 0 0 0-26.64 127.55c.35.94.73 1.87 1.13 2.8a118.15 118.15 0 0 0 25.51 37.95l38.92 38.42 3.06 3.03 84.22 83.13 2.17 2.15 22.12 21.84 17.09 16.87 167.58-165.45a119.13 119.13 0 0 0 0-168.29Zm-2.11 166.16L435.76 444.5l-14.95-14.76-21.65-21.37-2.17-2.14-82.58-81.53-3.01-2.97-41.1-40.58a115.2 115.2 0 0 1-24.76-36.72 64.8 64.8 0 0 1-1.13-2.79A116.13 116.13 0 0 1 270.3 117.1q2.79-2.79 5.71-5.34h.01A115.38 115.38 0 0 1 342.5 83.6q4.9-.42 9.82-.42c1.23 0 2.45.02 3.68.06a116.1 116.1 0 0 1 29.65 4.8c.99.3 1.98.6 2.96.93a114.16 114.16 0 0 1 29.33 14.5 115.61 115.61 0 0 1 16.41 13.63l1.06 1.06.35-.35.35.35 1.06-1.06a115.67 115.67 0 0 1 85.71-33.86c1.27.04 2.54.1 3.81.2 1.02.05 2.04.12 3.05.22a115.12 115.12 0 0 1 19.09 3.35c1.34.34 2.67.71 3.99 1.12a115.96 115.96 0 0 1 48.41 193.01Z" />
  <path
    d="M368.88 87.77c-6.42 5.07-13.31 9.75-17.48 16.68-3.07 5.12-4.4 11.07-5.39 16.95-1.92 11.44-2.74 23.16-6.5 34.13-3.75 10.97-11.07 21.45-21.92 25.54-6.73 2.53-14.15 2.4-21.32 1.9-17.69-1.2-35.5-4.37-51.42-12.16-8.9-4.36-17.53-10.24-27.42-10.89a25.4 25.4 0 0 0-6.02.33 117.5 117.5 0 0 1 131.57-79.99h.01c.38.06.75.12 1.13.2a113.6 113.6 0 0 1 11.91 2.77 117.48 117.48 0 0 1 12.85 4.54Z"
    opacity=".15" />
  <path fill="var(--color-raised-bg)" />
</svg>
