<?xml version="1.0" encoding="UTF-8" standalone="no"?>
<!DOCTYPE svg PUBLIC "-//W3C//DTD SVG 1.1//EN" "http://www.w3.org/Graphics/SVG/1.1/DTD/svg11.dtd">
<svg width="100%" height="100%" viewBox="0 0 100 100" version="1.1" xmlns="http://www.w3.org/2000/svg" xmlns:xlink="http://www.w3.org/1999/xlink" xml:space="preserve" xmlns:serif="http://www.serif.com/" style="fill-rule:evenodd;clip-rule:evenodd;stroke-linejoin:round;stroke-miterlimit:1.5;">
    <g transform="matrix(0.143426,0,0,1.06988,-86.9517,-529.82)">
        <rect id="Artboard1" x="606.249" y="495.213" width="697.225" height="93.468" style="fill:none;"/>
        <g id="Artboard11" serif:id="Artboard1">
            <g transform="matrix(8.46613,0,0,1.13495,-2763.34,201.463)">
                <g id="circles" transform="matrix(1.8246,0,0,1.8246,539.035,571.228)">
                    <path d="M-61.338,-155.486C-63.226,-153.598 -64.17,-151.32 -64.17,-148.651C-64.17,-145.981 -63.226,-143.703 -61.338,-141.815C-59.45,-139.927 -57.171,-138.983 -54.502,-138.983C-51.833,-138.983 -49.554,-139.927 -47.666,-141.815C-45.778,-143.703 -44.834,-145.981 -44.834,-148.651C-44.834,-151.32 -45.778,-153.598 -47.666,-155.486C-49.554,-157.374 -51.833,-158.318 -54.502,-158.318C-57.171,-158.318 -59.45,-157.374 -61.338,-155.486ZM-65.025,-144.219C-65.627,-145.627 -65.928,-147.104 -65.928,-148.651C-65.928,-150.197 -65.627,-151.674 -65.025,-153.082C-64.422,-154.49 -63.609,-155.706 -62.583,-156.732C-61.558,-157.757 -60.341,-158.571 -58.933,-159.173C-57.525,-159.775 -56.048,-160.076 -54.502,-160.076C-52.956,-160.076 -51.479,-159.775 -50.071,-159.173C-48.663,-158.571 -47.446,-157.757 -46.421,-156.732C-45.396,-155.706 -44.582,-154.49 -43.98,-153.082C-43.377,-151.674 -43.076,-150.197 -43.076,-148.651C-43.076,-147.104 -43.377,-145.627 -43.98,-144.219C-44.582,-142.811 -45.396,-141.595 -46.421,-140.569C-47.446,-139.544 -48.663,-138.73 -50.071,-138.128C-51.479,-137.526 -52.956,-137.225 -54.502,-137.225C-56.048,-137.225 -57.525,-137.526 -58.933,-138.128C-60.341,-138.73 -61.558,-139.544 -62.583,-140.569C-63.609,-141.595 -64.422,-142.811 -65.025,-144.219ZM-65.916,-155.267C-67.096,-153.248 -67.686,-151.043 -67.686,-148.651C-67.686,-146.258 -67.096,-144.053 -65.916,-142.034C-64.736,-140.016 -63.137,-138.417 -61.118,-137.237C-59.1,-136.057 -56.895,-135.467 -54.502,-135.467C-52.109,-135.467 -49.904,-136.057 -47.886,-137.237C-45.868,-138.417 -44.269,-140.016 -43.088,-142.034C-41.908,-144.053 -41.318,-146.258 -41.318,-148.651C-41.318,-151.043 -41.908,-153.248 -43.088,-155.267C-44.269,-157.285 -45.868,-158.884 -47.886,-160.064C-49.904,-161.244 -52.109,-161.834 -54.502,-161.834C-56.895,-161.834 -59.1,-161.244 -61.118,-160.064C-63.137,-158.884 -64.736,-157.285 -65.916,-155.267ZM-67.442,-141.155C-68.776,-143.45 -69.443,-145.949 -69.443,-148.651C-69.443,-151.352 -68.776,-153.851 -67.442,-156.146C-66.107,-158.441 -64.292,-160.255 -61.997,-161.59C-59.702,-162.925 -57.204,-163.592 -54.502,-163.592C-51.8,-163.592 -49.302,-162.925 -47.007,-161.59C-44.712,-160.255 -42.897,-158.441 -41.563,-156.146C-40.228,-153.851 -39.561,-151.352 -39.561,-148.651C-39.561,-145.949 -40.228,-143.45 -41.563,-141.155C-42.897,-138.86 -44.712,-137.046 -47.007,-135.711C-49.302,-134.376 -51.8,-133.709 -54.502,-133.709C-57.204,-133.709 -59.702,-134.376 -61.997,-135.711C-64.292,-137.046 -66.107,-138.86 -67.442,-141.155ZM-69.883,-155.145C-70.762,-153.078 -71.201,-150.913 -71.201,-148.651C-71.201,-146.388 -70.762,-144.223 -69.883,-142.156C-69.004,-140.089 -67.82,-138.311 -66.331,-136.822C-64.841,-135.333 -63.063,-134.149 -60.996,-133.27C-58.929,-132.391 -56.764,-131.951 -54.502,-131.951C-52.24,-131.951 -50.075,-132.391 -48.008,-133.27C-45.941,-134.149 -44.163,-135.333 -42.673,-136.822C-41.184,-138.311 -40,-140.089 -39.121,-142.156C-38.242,-144.223 -37.803,-146.388 -37.803,-148.651C-37.803,-150.913 -38.242,-153.078 -39.121,-155.145C-40,-157.212 -41.184,-158.99 -42.673,-160.479C-44.163,-161.968 -45.941,-163.152 -48.008,-164.031C-50.075,-164.91 -52.24,-165.35 -54.502,-165.35C-56.764,-165.35 -58.929,-164.91 -60.996,-164.031C-63.063,-163.152 -64.841,-161.968 -66.331,-160.479C-67.82,-158.99 -69.004,-157.212 -69.883,-155.145ZM-70.481,-139.398C-72.133,-142.23 -72.959,-145.314 -72.959,-148.651C-72.959,-151.987 -72.133,-155.071 -70.481,-157.903C-68.829,-160.735 -66.587,-162.978 -63.755,-164.63C-60.923,-166.282 -57.839,-167.108 -54.502,-167.108C-51.165,-167.108 -48.081,-166.282 -45.249,-164.63C-42.417,-162.978 -40.175,-160.735 -38.523,-157.903C-36.871,-155.071 -36.045,-151.987 -36.045,-148.651C-36.045,-145.314 -36.871,-142.23 -38.523,-139.398C-40.175,-136.566 -42.417,-134.324 -45.249,-132.672C-48.081,-131.019 -51.165,-130.193 -54.502,-130.193C-57.839,-130.193 -60.923,-131.019 -63.755,-132.672C-66.587,-134.324 -68.829,-136.566 -70.481,-139.398ZM-73.118,-156.5C-74.184,-154.001 -74.717,-151.385 -74.717,-148.651C-74.717,-145.916 -74.184,-143.3 -73.118,-140.801C-72.052,-138.303 -70.615,-136.151 -68.809,-134.344C-67.002,-132.537 -64.85,-131.101 -62.351,-130.035C-59.853,-128.969 -57.236,-128.436 -54.502,-128.436C-51.768,-128.436 -49.151,-128.969 -46.653,-130.035C-44.155,-131.101 -42.002,-132.537 -40.195,-134.344C-38.389,-136.151 -36.952,-138.303 -35.886,-140.801C-34.82,-143.3 -34.287,-145.916 -34.287,-148.651C-34.287,-151.385 -34.82,-154.001 -35.886,-156.5C-36.952,-158.998 -38.389,-161.151 -40.195,-162.957C-42.002,-164.764 -44.155,-166.2 -46.653,-167.266C-49.151,-168.332 -51.768,-168.865 -54.502,-168.865C-57.236,-168.865 -59.853,-168.332 -62.351,-167.266C-64.85,-166.2 -67.002,-164.764 -68.809,-162.957C-70.615,-161.151 -72.052,-158.998 -73.118,-156.5ZM-76.475,-148.651C-76.475,-151.629 -75.893,-154.473 -74.729,-157.183C-73.565,-159.893 -72.003,-162.229 -70.042,-164.19C-68.08,-166.151 -65.745,-167.714 -63.035,-168.878C-60.325,-170.041 -57.481,-170.623 -54.502,-170.623C-51.524,-170.623 -48.679,-170.041 -45.969,-168.878C-43.259,-167.714 -40.924,-166.151 -38.963,-164.19C-37.001,-162.229 -35.439,-159.893 -34.275,-157.183C-33.111,-154.473 -32.529,-151.629 -32.529,-148.651C-32.529,-145.672 -33.111,-142.828 -34.275,-140.118C-35.439,-137.408 -37.001,-135.072 -38.963,-133.111C-40.924,-131.15 -43.259,-129.587 -45.969,-128.423C-48.679,-127.26 -51.524,-126.678 -54.502,-126.678C-57.481,-126.678 -60.325,-127.26 -63.035,-128.423C-65.745,-129.587 -68.08,-131.15 -70.042,-133.111C-72.003,-135.072 -73.565,-137.408 -74.729,-140.118C-75.893,-142.828 -76.475,-145.672 -76.475,-148.651" style="fill:var(--color-brand);fill-rule:nonzero;"/>
                </g>
                <g id="wrench">
                    <g transform="matrix(0.188282,-0.21605,0.326113,0.124737,413.887,302.482)">
                        <path d="M50,50L5.171,75.882" style="fill:none;stroke:var(--color-brand);stroke-width:8.94px;"/>
                    </g>
                    <g transform="matrix(0.188282,-0.326113,0.326113,0.188282,413.887,301.118)">
                        <path d="M37.243,52.746L35,45L43,36L54,33L58,37L52,43L48,44L45,48L46.12,52.24L49.232,55.33L54.196,54.732L57.062,51.768L65.258,49.572L66.722,55.036L58.624,63.062L46.83,65.49L41.243,59.675L37.243,52.746Z" style="fill:var(--color-brand);"/>
                    </g>
                </g>
                <g transform="matrix(1.19918,0,0,1,-80.3814,-3.90549)">
                    <g id="gaps-1">
                        <rect x="399.499" y="299.89" width="4.064" height="8.03" style="fill:var(--color-bg);"/>
                    </g>
                </g>
                <g id="gaps-2">
                    <g transform="matrix(0.944421,-0.738986,0.616243,0.787556,-151.781,377.886)">
                        <rect x="399.499" y="299.89" width="4.064" height="8.03" style="fill:var(--color-bg);"/>
                    </g>
                    <g transform="matrix(-0.643819,-1.0117,0.843657,-0.536883,459.075,895.995)">
                        <rect x="399.499" y="299.89" width="4.064" height="8.03" style="fill:var(--color-bg);"/>
                    </g>
                    <g transform="matrix(-0.791203,-0.901126,0.751452,-0.659787,507.292,838.42)">
                        <rect x="399.499" y="299.89" width="4.064" height="8.03" style="fill:var(--color-bg);"/>
                    </g>
                </g>
                <g id="gaps-3">
                    <g transform="matrix(1.19335,-0.118134,0.0985122,0.995136,-94.8972,46.4616)">
                        <rect x="399.499" y="299.89" width="4.064" height="8.03" style="fill:var(--color-bg);"/>
                    </g>
                    <g transform="matrix(0.968296,-0.707414,0.589915,0.807465,-107.714,324.164)">
                        <rect x="399.499" y="299.89" width="4.064" height="8.03" style="fill:var(--color-bg);"/>
                    </g>
                    <g transform="matrix(1.11022e-16,-1.19918,1,1.66533e-16,135.685,756.104)">
                        <rect x="399.499" y="299.89" width="4.064" height="8.03" style="fill:var(--color-bg);"/>
                    </g>
                </g>
                <g id="gaps-4">
                    <g transform="matrix(-0.813573,-0.880982,0.734654,-0.678442,530.551,845.267)">
                        <rect x="399.499" y="299.89" width="4.064" height="8.03" style="fill:var(--color-bg);"/>
                    </g>
                    <g transform="matrix(-0.642597,-1.01247,0.844304,-0.535864,451.62,885.308)">
                        <rect x="399.499" y="299.89" width="4.064" height="8.03" style="fill:var(--color-bg);"/>
                    </g>
                </g>
                <g id="connecty-bits">
                    <g transform="matrix(0.988956,-0.148207,0.148207,0.988956,-41.7447,72.0075)">
                        <path d="M418.941,275.461L416.999,277.402L412.257,272.659L414.198,270.718L418.941,275.461Z" style="fill:var(--color-brand);"/>
                    </g>
                    <g transform="matrix(0.949532,0.313669,-0.313669,0.949532,119.29,-116.529)">
                        <path d="M418.941,275.461L416.999,277.402L412.257,272.659L414.198,270.718L418.941,275.461Z" style="fill:var(--color-brand);"/>
                    </g>
                    <g transform="matrix(-0.43879,-0.89859,0.89859,-0.43879,367.81,821.354)">
                        <path d="M418.941,275.461L416.999,277.402L412.257,272.659L414.198,270.718L418.941,275.461Z" style="fill:var(--color-brand);"/>
                    </g>
                    <g transform="matrix(-0.982338,0.187114,-0.187114,-0.982338,918.801,502.173)">
                        <path d="M418.941,275.461L416.999,277.402L412.257,272.659L414.198,270.718L418.941,275.461Z" style="fill:var(--color-brand);"/>
                    </g>
                    <g transform="matrix(-0.126923,-0.991913,0.991913,-0.126923,232.512,727.851)">
                        <path d="M418.941,275.461L416.999,277.402L412.257,272.659L414.198,270.718L418.941,275.461Z" style="fill:var(--color-brand);"/>
                    </g>
                    <g transform="matrix(-0.936191,0.351492,-0.351492,-0.936191,904.656,401.327)">
                        <path d="M418.941,275.461L416.999,277.402L412.257,272.659L414.198,270.718L418.941,275.461Z" style="fill:var(--color-brand);"/>
                    </g>
                    <g transform="matrix(-0.960662,0.27772,-0.27772,-0.960662,945.429,465.396)">
                        <path d="M418.941,275.461L416.999,277.402L412.257,272.659L414.198,270.718L418.941,275.461Z" style="fill:var(--color-brand);"/>
                    </g>
                </g>
            </g>
        </g>
    </g>
</svg>
