<?xml version="1.0" encoding="utf-8"?>
<!-- Generator: Adobe Illustrator 28.3.0, SVG Export Plug-In . SVG Version: 6.00 Build 0)  -->
<svg version="1.1" id="Layer_1" xmlns="http://www.w3.org/2000/svg" xmlns:xlink="http://www.w3.org/1999/xlink" x="0px" y="0px"
	 viewBox="0 0 79.7 79.7" style="enable-background:new 0 0 79.7 79.7;" xml:space="preserve">
<g id="frogrinth">
	<g>
		<path id="right_00000125574476583013779490000002690216409553892766_" style="fill:var(--color-brand);" d="M59.1,31.6
			c-1,4.6,4.7,0.9,5.6-1.1c1-1.5,1.1-3.5,2.4-4.6c1.7-1.4,2.9,0.7,2.6,2.4c-0.4,5.5-5.4,7.7-9,10.7c-3.9,11.7-8.7,29.4-24.3,28.2
			c-2.7-0.2-6.4,0.9-8-1.8c-1.9-3.5,3.1-7.5,5.8-8.9c2.3-1.5,14.1,0.3,7.3,3.4c-2.6,0.2-8-0.2-8.5,3.1c8.2,2,14.1-1.6,17.7-9
			c2.1-3.7,6.7-13.1,4.8-17.5c-1.5-2.4-4.9-0.2-7.3-1.2c-3.1-0.9-5.7-2.7-9-2.9c-2.7-1.1-11,2.5-10.7-1.7c3.4-5.1,16.4-1.1,21.2,0.9
			c7.6,1.7,11.3-14.8,15.1-11.3C67.1,22.9,60.1,28.9,59.1,31.6z"/>
		<path id="left_00000180366872236621967990000002671539785896305321_" style="fill:var(--color-brand);" d="M9.8,44.2
			C4.2,24.3,25.6,25.1,17.2,31c-3.8,1.4-4.5,4.6-4.1,8.3c0.6,3,0.7,10.1,3.5,11.2c2-1.4,4.3-4,3-7c-1.2-2.6,0.9-9.4,3.3-4.3
			c1.4,9.1,3.3,7.5-3.7,14.5C12.9,61.3,11.3,48.5,9.8,44.2z"/>
		<path id="outer" style="fill:var(--color-brand);" d="M78.6,17.2C78.2,47,53.3,92,18.4,74C4.1,69.1,18,62.3,22.7,55.7
			c2.1-2.3,4.3-4.7,6.8-6.7c2.8-2.1,0.4-5.8,1.4-8.7c0.9-4.6,9.8-9.8,12.3-3.8c0.5,1.5-0.4,2.8-2.1,2.1c-3.4-2-7.2,1.3-6.5,5
			c0.5,3.6,5.4,7.9,8.8,5.4c1.7-1.2,1.7-3.6,2.8-5.1c0.7-0.9,2.1-1,2.6,0.2c1.8,6.5-6.1,12.4-11.8,8.5c-4.6-3.8-7.9,2.7-11,5.4
			c-2.3,3-8.6,7.4-8.9,10.9c32.1,21.2,57-22.5,57.4-50.7c2.5-11.5,1.2-14.9-11-11.4c-4.3,3.1-6.5,8.3-9.4,12.7
			c-3.6,6.5-9.4,6.5-15.9,6.3c-12.1,0.7-16-3.8-20-14.4C16,9,10.6,8.6,8.2,11C2.9,16,3.1,23,5,29.6c1.3,6.8,2,14.1,3.4,20.9
			c0.6,3.1,1.2,6.1,2.1,9.2c1.4,5.1-2.7,5.9-3.8,0.5c-3-13.4-6-27.4-6.7-41c0.8-5,4.2-12,9.6-13.4c4.6-0.7,10.8-0.1,12.9,4.6
			C24.6,22.8,35,22.5,45.1,21.7c7.6-3,9.7-13.1,15.8-18C73.8-1.3,82.8,2.1,78.6,17.2z"/>
	</g>
	<g id="eyes" style="fill:var(--color-text-dark);">
		<path id="right" d="M69.9,18.1c-1.2,1.7-2.7,3.4-4.9,2.7c-2.1-0.8-4.5-2.6-3.6-5.2C63.5,7.6,74.2,10.6,69.9,18.1z"/>
		<path id="left" d="M8,17.7c-0.1-3.6,5.8-7.1,8-3.5C19,23.2,5.7,24.9,8,17.7z"/>
	</g>
</g>
</svg>
