<svg xmlns="http://www.w3.org/2000/svg" viewBox="0 0 436.57 141.73">
  <g>
    <g>
      <path d="M139.28,89.29A70.89,70.89,0,0,0,52.41,2.43,70.91,70.91,0,0,0,.19,63.52h12A58.78,58.78,0,0,1,125.45,49.93l-11.67,3.12a46.52,46.52,0,0,0-29-26.52L82.65,38.66a34.31,34.31,0,0,1,2.77,63.26l3.19,11.9a46.52,46.52,0,0,0,28.33-49l11.62-3.1A58.3,58.3,0,0,1,127.49,85Z" fill="#5da545" fill-rule="evenodd"/>
      <path d="M89.13,139.3A71,71,0,0,1,0,76H12a59.2,59.2,0,0,0,5.4,19.82l10.68-6.41A47.8,47.8,0,0,1,25.8,82.9a46.59,46.59,0,0,1,47-58.5L70.64,36.54A34.38,34.38,0,0,0,37.58,79.75c.3,1.13.66,2.22,1.06,3.29L52.3,74.85,48.19,63.93l12.9-13.25,16.3-3.51L82.11,53l-7.52,7.61L68,62.65l-4.68,4.82,2.29,6.38s4.65,4.94,4.66,4.94l6.56-1.74,4.68-5.13,10.2-3.24,3,6.84L84.26,88.43,66.62,94l-7.91-8.81L44.92,93.48a34.44,34.44,0,0,0,28.72,11.59L76.83,117A46.62,46.62,0,0,1,34.34,99.83l-10.63,6.38a58.8,58.8,0,0,0,99.59-9.77l11.8,4.29A70.77,70.77,0,0,1,89.13,139.3Z" fill="#5da545"/>
    </g>
    <g>
      <path d="M436.57,67.21c.23,25.84-21.28,47.17-47.78,47.4l-184,1.58c-26.5.23-48.37-20.72-48.59-46.56S177.52,22.47,204,22.24l184-1.59C414.48,20.42,436.35,41.37,436.57,67.21Z" fill="#f79559"/>
      <g>
        <path d="M203.51,97.12l-.45-52.36,22.7-.2q9-.08,13.67,3.44a11.36,11.36,0,0,1,4.75,9.49A10.79,10.79,0,0,1,241.46,65a12.9,12.9,0,0,1-7.3,4.08v.51a13.17,13.17,0,0,1,6.15,1.64,11.94,11.94,0,0,1,4.44,4.29,12.42,12.42,0,0,1,1.69,6.44,13.48,13.48,0,0,1-2.17,7.66A15.09,15.09,0,0,1,238,94.9a23.06,23.06,0,0,1-9.8,2Zm14-31.32,5.83,0a7.46,7.46,0,0,0,4.56-1.34,4.82,4.82,0,0,0,0-7.43,7.19,7.19,0,0,0-4.41-1.25l-6,.05Zm.17,19.85,6.65-.06q7.16-.06,7.11-5.38A5.15,5.15,0,0,0,229.5,76a7.94,7.94,0,0,0-5.11-1.44l-6.86.06Z" fill="#6c2d10"/>
        <path d="M251.58,96.7l-.46-52.36L288.86,44l.1,11.45-23.52.2.08,9,21.57-.18.1,11.45-21.57.19.07,9,23.42-.21.1,11.46Z" fill="#6c2d10"/>
        <path d="M294.58,55.42,294.49,44l45.51-.4L340.09,55l-15.75.14.36,40.9-14,.12-.36-40.9Z" fill="#6c2d10"/>
        <path d="M352.72,95.83,337.38,96l16.83-52.51,19.43-.17L391.38,95.5,376,95.63l-3.11-10-17.28.15Zm6.06-20.71,10.84-.1-5.36-17.23h-.41Z" fill="#6c2d10"/>
      </g>
    </g>
  </g>
</svg>
