<svg xmlns="http://www.w3.org/2000/svg" viewBox="0 0 904.44 141.73">
  <g>
    <path d="M141.85,89.82A70.94,70.94,0,1,0,2.76,64.05h12A58.78,58.78,0,0,1,128,50.47l-11.66,3.12a46.56,46.56,0,0,0-29-26.53L85.21,39.19A34.31,34.31,0,0,1,88,102.45l3.19,11.9a46.5,46.5,0,0,0,28.33-49l11.62-3.11a58.16,58.16,0,0,1-1.06,23.3Z" transform="translate(-2.57 -0.53)" fill="#5da545" fill-rule="evenodd"/>
    <path d="M91.7,139.83A70.92,70.92,0,0,1,2.57,76.51h12a59.6,59.6,0,0,0,1.78,9.92A58.94,58.94,0,0,0,20,96.33l10.68-6.41A46.51,46.51,0,0,1,61.29,26.49a46.5,46.5,0,0,1,14.06-1.55L73.21,37.07a35,35,0,0,0-8.77,1.18,34.3,34.3,0,0,0-24.29,42,32.56,32.56,0,0,0,1.06,3.3l13.66-8.2L50.75,64.46l12.9-13.25L80,47.7l4.72,5.81-7.52,7.61-6.55,2.07L65.92,68l2.3,6.39,4.65,4.94,6.57-1.75,4.67-5.13,10.21-3.23,3,6.84L86.83,89,69.19,94.55l-7.92-8.81L47.48,94A34.44,34.44,0,0,0,76.2,105.6l3.2,11.9a46.64,46.64,0,0,1-42.49-17.13l-10.64,6.37A58.81,58.81,0,0,0,125.87,97l11.8,4.29A70.74,70.74,0,0,1,91.7,139.83Z" transform="translate(-2.57 -0.53)" fill="#5da545"/>
  </g>
  <g>
    <path d="M285.73,47.1q7.51,7.47,7.52,22.38v39H277.32v-37q0-8.93-3.95-13.45T262,53.54q-8,0-12.87,5.29T244.3,73.94v34.54H228.37v-37q0-8.93-4-13.45t-11.35-4.53q-8.16,0-12.94,5.23t-4.78,15.17v34.54H179.42V40.41h15.17v8.67a24.68,24.68,0,0,1,9.56-7,32.51,32.51,0,0,1,12.74-2.42,30.7,30.7,0,0,1,13.58,2.87A22,22,0,0,1,239.84,51a28.37,28.37,0,0,1,10.84-8.35,35.25,35.25,0,0,1,14.66-3Q278.21,39.65,285.73,47.1Z" transform="translate(-2.57 -0.53)" fill="#19202c"/>
    <path d="M326.27,104.92a32.53,32.53,0,0,1-12.94-12.43,35,35,0,0,1-4.65-18,34.71,34.71,0,0,1,4.65-18,32.63,32.63,0,0,1,12.94-12.36,41.33,41.33,0,0,1,37.35,0,32.77,32.77,0,0,1,12.94,12.36,34.81,34.81,0,0,1,4.65,18,35.13,35.13,0,0,1-4.65,18,32.66,32.66,0,0,1-12.94,12.43,41.33,41.33,0,0,1-37.35,0Zm33.14-15q5.73-5.87,5.74-15.42T359.41,59a19.49,19.49,0,0,0-14.53-5.86A19.28,19.28,0,0,0,330.41,59q-5.67,5.86-5.67,15.43t5.67,15.42a19.25,19.25,0,0,0,14.47,5.87A19.46,19.46,0,0,0,359.41,89.87Z" transform="translate(-2.57 -0.53)" fill="#19202c"/>
    <path d="M463.17,13.9v94.58H447.88V99.69a24.75,24.75,0,0,1-9.76,7.27,33,33,0,0,1-12.81,2.42A35.84,35.84,0,0,1,407.66,105a31.1,31.1,0,0,1-12.3-12.3,36.74,36.74,0,0,1-4.46-18.29,36.37,36.37,0,0,1,4.46-18.23A31.2,31.2,0,0,1,407.66,44a35.84,35.84,0,0,1,17.65-4.33,32.36,32.36,0,0,1,12.37,2.29,24.92,24.92,0,0,1,9.56,6.89V13.9ZM437.55,93.12a18.89,18.89,0,0,0,7.27-7.45,22.87,22.87,0,0,0,2.67-11.22,22.87,22.87,0,0,0-2.67-11.22,19,19,0,0,0-7.27-7.46,21.73,21.73,0,0,0-20.65,0,19,19,0,0,0-7.27,7.46A22.87,22.87,0,0,0,407,74.45a22.87,22.87,0,0,0,2.67,11.22,18.89,18.89,0,0,0,7.27,7.45,21.65,21.65,0,0,0,20.65,0Z" transform="translate(-2.57 -0.53)" fill="#19202c"/>
    <path d="M523.47,39.65V54.82a19.84,19.84,0,0,0-3.7-.39q-9.3,0-14.53,5.42T500,75.47v33H484.08V40.41h15.17v9.94Q506.14,39.66,523.47,39.65Z" transform="translate(-2.57 -0.53)" fill="#19202c"/>
    <path d="M537.75,26.45a8.92,8.92,0,0,1-2.93-6.82,9,9,0,0,1,2.93-6.82A10.24,10.24,0,0,1,545,10.07a10.56,10.56,0,0,1,7.27,2.62,8.43,8.43,0,0,1,2.93,6.56,9.6,9.6,0,0,1-2.87,7.08A9.92,9.92,0,0,1,545,29.19,10.2,10.2,0,0,1,537.75,26.45Zm-.77,14h15.94v68.07H537Z" transform="translate(-2.57 -0.53)" fill="#19202c"/>
    <path d="M633.1,47.17q7.77,7.52,7.77,22.31v39H624.94v-37q0-8.93-4.21-13.45t-12-4.53q-8.79,0-13.9,5.29t-5.09,15.24v34.41H573.82V40.41H589v8.8a24.8,24.8,0,0,1,9.94-7.14,35.91,35.91,0,0,1,13.52-2.42Q625.32,39.65,633.1,47.17Z" transform="translate(-2.57 -0.53)" fill="#19202c"/>
    <path d="M699.38,104.79a18.81,18.81,0,0,1-6.82,3.44,30.83,30.83,0,0,1-8.47,1.15q-11.22,0-17.34-5.87t-6.12-17.08V25.37h15.94V40.92h18.22V53.67H676.57V86.05c0,3.31.82,5.84,2.48,7.58a9.11,9.11,0,0,0,7,2.62,14,14,0,0,0,8.92-2.81Z" transform="translate(-2.57 -0.53)" fill="#19202c"/>
    <path d="M771.79,47.17q7.77,7.52,7.78,22.31v39H763.63v-37q0-8.93-4.2-13.45t-12-4.53q-8.79,0-13.89,5.29t-5.1,15.24v34.41H712.51V13.9h15.94V48.32a25.82,25.82,0,0,1,9.75-6.44,35.75,35.75,0,0,1,12.94-2.23Q764,39.65,771.79,47.17Z" transform="translate(-2.57 -0.53)" fill="#19202c"/>
    <path d="M901.65,96.13c0,.32,0,.8-.11,1.43s-.16,1.32-.27,2.09-.27,1.57-.46,2.41-.4,1.62-.63,2.34-.48,1.39-.73,2a3.11,3.11,0,0,1-2.23,2.13,23,23,0,0,1-2.41.73,28,28,0,0,1-3,.56,22.1,22.1,0,0,1-2.9.21,18.85,18.85,0,0,1-6-.8,9.44,9.44,0,0,1-6.32-6.6,23.06,23.06,0,0,1-.7-7.33,40.76,40.76,0,0,1-6.52,7.19,34.36,34.36,0,0,1-6.5,4.4,31.32,31.32,0,0,1-6.32,2.41,24.42,24.42,0,0,1-6,.8,26.49,26.49,0,0,1-9.74-1.64,16.82,16.82,0,0,1-6.78-4.71,20.26,20.26,0,0,1-3.91-7.37,34.4,34.4,0,0,1-1.29-9.88,61.12,61.12,0,0,1,.8-9.6,71.61,71.61,0,0,1,2.48-10.23,50.43,50.43,0,0,1,4.47-10,38,38,0,0,1,6.78-8.55,29.82,29.82,0,0,1,9.53-6,32.68,32.68,0,0,1,12.32-2.23,25.21,25.21,0,0,1,8.24,1.22,15.53,15.53,0,0,1,6.14,3.84A18.26,18.26,0,0,1,883.77,52,30.5,30.5,0,0,1,885.31,62c.56-1.58,1.07-3,1.54-4.33s1-2.73,1.53-4.29,1.08-3.14,1.57-4.75.95-3.25,1.36-4.92a2.64,2.64,0,0,1,.6-1.16,3.56,3.56,0,0,1,1.29-.87,8.75,8.75,0,0,1,2.37-.49c1-.09,2.31-.14,3.84-.14s2.77,0,3.84.14a9.44,9.44,0,0,1,2.48.49,1.66,1.66,0,0,1,1.23,2.1q-1.34,5.3-3.11,10.37T900,64q-2.07,4.81-4.51,9.35T890,82.51v5.17a26.88,26.88,0,0,0,.24,3.73,7,7,0,0,0,.84,2.69,2.87,2.87,0,0,0,1.33,1.26,4.7,4.7,0,0,0,1.64.28,11.33,11.33,0,0,0,2.23-.21c.7-.14,1.32-.28,1.85-.42s1-.28,1.43-.42a3.63,3.63,0,0,1,1.12-.21C901.32,94.38,901.65,95,901.65,96.13ZM873.09,71.55a48,48,0,0,0-.66-9.25,16.91,16.91,0,0,0-1.64-4.79A6.38,6.38,0,0,0,868.27,55a7.78,7.78,0,0,0-3.63-.8,10.7,10.7,0,0,0-5.51,1.47,15.68,15.68,0,0,0-4.47,3.94,26.45,26.45,0,0,0-3.39,5.66,45.88,45.88,0,0,0-2.37,6.53,53.36,53.36,0,0,0-1.43,6.53,38,38,0,0,0-.49,5.83,26,26,0,0,0,.45,5.09,10.31,10.31,0,0,0,1.4,3.67A5.7,5.7,0,0,0,851.17,95a7.44,7.44,0,0,0,3.28.67,11.92,11.92,0,0,0,5.27-1.37,22.35,22.35,0,0,0,5.45-3.91,37.39,37.39,0,0,0,4.5-5c1.21-1.65,2.07-2.88,2.58-3.67s.78-1.22.81-1.29S873.09,77.41,873.09,71.55Z" transform="translate(-2.57 -0.53)" fill="#ef4136"/>
  </g>
</svg>
