<?xml version="1.0" encoding="utf-8"?>
<svg version="1.1" id="Layer_1" xmlns="http://www.w3.org/2000/svg" xmlns:xlink="http://www.w3.org/1999/xlink" x="0px" y="0px"
	 viewBox="0 0 803.6 141.7" style="enable-background:new 0 0 803.6 141.7;" xml:space="preserve">
<g fill="var(--color-brand)">
	<path class="st0" d="M139.3,89.3C149.4,51.5,127,12.5,89.2,2.4S12.4,14.7,2.3,52.5c-1,3.6-1.7,7.3-2,11h12
		c4.1-32.2,33.5-55,65.7-50.9c21.5,2.7,39.8,17.1,47.5,37.4L113.8,53c-5.3-12.7-15.9-22.4-29-26.5l-2.2,12.1
		c17.8,6.5,26.9,26.2,20.4,44c-3.1,8.5-9.4,15.4-17.6,19.2l3.2,11.9c19.4-8,31.1-28.1,28.3-49l11.6-3.1c1.2,7.8,0.9,15.7-1.1,23.3
		L139.3,89.3z"/>
	<path class="st1" d="M89.1,139.3C51.3,149.5,12.4,127,2.2,89.2C1.1,84.9,0.3,80.5,0,76h12c0.3,3.3,0.9,6.7,1.8,9.9
		c0.9,3.4,2.1,6.7,3.6,9.9l10.7-6.4c-10.2-23.6,0.7-51,24.3-61.2c6.4-2.8,13.4-4.1,20.4-3.8l-2.2,12.1c-19,0.1-34.3,15.5-34.2,34.5
		c0,2.9,0.4,5.8,1.2,8.7c0.3,1.1,0.6,2.2,1.1,3.2l13.7-8.2l-4.1-10.9l12.9-13.2l16.3-3.5l4.7,5.8l-7.5,7.6L68,62.7l-4.7,4.8l2.3,6.4
		c0,0,4.6,4.9,4.7,4.9l6.6-1.7l4.7-5.1l10.2-3.2l3,6.8L84.3,88.4L66.6,94l-7.9-8.8l-13.8,8.3c7.2,8.2,17.9,12.5,28.7,11.6l3.2,11.9
		c-16.2,2.1-32.3-4.4-42.5-17.2l-10.6,6.4c19.7,25.8,56.6,30.8,82.4,11.1c7.3-5.5,13.2-12.7,17.2-20.9l11.8,4.3
		C126.3,119.8,109.4,133.9,89.1,139.3z"/>
</g>
<g fill="currentColor">
	<path class="st2" d="M283.2,51.9c5,5,7.5,12.4,7.5,22.4v39.1h-16v-37c0-5.9-1.3-10.4-4-13.5c-2.7-3-6.4-4.5-11.3-4.5
		c-5.3,0-9.6,1.8-12.9,5.3s-4.9,8.6-4.9,15.1v34.6h-15.9v-37c0-5.9-1.3-10.4-4-13.5c-2.7-3-6.4-4.5-11.3-4.5
		c-5.4,0-9.8,1.7-12.9,5.2c-3.2,3.5-4.8,8.5-4.8,15.2v34.6h-15.9V45.2H192v8.7c2.6-3.1,5.9-5.5,9.6-7c4-1.7,8.4-2.5,12.7-2.4
		c4.7-0.1,9.3,0.9,13.6,2.9c3.9,1.9,7.1,4.8,9.4,8.5c2.9-3.6,6.6-6.5,10.8-8.4c4.6-2,9.6-3.1,14.7-3
		C271.3,44.5,278.2,46.9,283.2,51.9z"/>
	<path class="st2" d="M323.7,109.7c-5.4-2.8-9.9-7.1-12.9-12.4c-3.1-5.5-4.8-11.7-4.7-18c-0.1-6.3,1.5-12.5,4.7-18
		c3.1-5.2,7.6-9.5,12.9-12.4c11.7-6,25.6-6,37.4,0c5.4,2.8,9.9,7.1,12.9,12.4c3.2,5.5,4.8,11.7,4.7,18c0.1,6.3-1.5,12.5-4.7,18
		c-3.1,5.3-7.5,9.6-12.9,12.4C349.3,115.7,335.4,115.7,323.7,109.7L323.7,109.7z M356.8,94.7c3.8-3.9,5.7-9,5.7-15.4
		c0-6.4-1.9-11.5-5.7-15.4c-3.8-3.9-9.1-6-14.5-5.9c-5.4-0.2-10.7,2-14.5,5.9c-3.8,3.9-5.6,9-5.6,15.4c0,6.4,1.9,11.5,5.7,15.4
		c3.8,3.9,9,6,14.4,5.9C347.8,100.7,353,98.6,356.8,94.7L356.8,94.7z"/>
	<path class="st2" d="M460.6,18.7v94.6h-15.3v-8.8c-2.6,3.2-6,5.7-9.8,7.3c-4.1,1.7-8.4,2.5-12.8,2.4c-6.2,0.1-12.2-1.4-17.6-4.3
		c-5.2-2.8-9.5-7.1-12.3-12.3c-3.1-5.6-4.6-11.9-4.5-18.3c-0.1-6.4,1.4-12.6,4.5-18.2c2.9-5.2,7.1-9.4,12.3-12.2
		c5.4-2.9,11.5-4.4,17.6-4.3c4.2-0.1,8.4,0.7,12.4,2.3c3.7,1.5,7,3.9,9.6,6.9V18.7H460.6z M435,97.9c3.1-1.8,5.6-4.3,7.2-7.5
		c1.8-3.4,2.8-7.3,2.7-11.2c0.1-3.9-0.8-7.8-2.7-11.2c-1.7-3.1-4.2-5.7-7.3-7.5c-6.4-3.5-14.2-3.5-20.6,0c-3.1,1.8-5.6,4.3-7.3,7.5
		c-1.8,3.5-2.8,7.3-2.7,11.2c-0.1,3.9,0.8,7.8,2.7,11.2c1.7,3.1,4.2,5.7,7.3,7.5C420.7,101.4,428.5,101.4,435,97.9L435,97.9z"/>
	<path class="st2" d="M520.9,44.5v15.2c-1.2-0.2-2.5-0.4-3.7-0.4c-6.2,0-11,1.8-14.5,5.4s-5.2,8.8-5.2,15.6v33.1h-15.9V45.2h15.2
		v9.9C501.3,48,509.3,44.5,520.9,44.5z"/>
	<path class="st2" d="M535.2,31.3c-1.9-1.7-3-4.2-3-6.8c0-2.6,1.1-5.1,3-6.8c2-1.8,4.6-2.8,7.2-2.7c2.7-0.1,5.3,0.9,7.3,2.6
		c1.9,1.6,3,4.1,2.9,6.6c0.1,2.7-1,5.2-2.9,7.1c-1.9,1.9-4.6,3-7.3,2.9C539.8,34.1,537.2,33.1,535.2,31.3z M534.4,45.3h15.9v68.1
		h-16L534.4,45.3z"/>
	<path class="st2" d="M630.5,52c5.2,5,7.8,12.4,7.8,22.3v39.1h-15.9v-37c0-5.9-1.4-10.4-4.2-13.5c-2.8-3-6.8-4.5-11.9-4.5
		c-5.9,0-10.5,1.8-13.9,5.3s-5.1,8.6-5.1,15.2v34.5h-16V45.2h15.2V54c2.7-3.2,6.1-5.6,9.9-7.1c4.3-1.7,8.9-2.5,13.5-2.4
		C618.4,44.5,625.3,47,630.5,52z"/>
	<path class="st2" d="M696.8,109.6c-2,1.6-4.3,2.8-6.8,3.4c-2.8,0.8-5.6,1.2-8.5,1.1c-7.5,0-13.2-1.9-17.3-5.8
		c-4.1-3.9-6.1-9.6-6.2-17.1V30.2H674v15.5h18.2v12.8H674v32.4c0,3.3,0.8,5.8,2.5,7.6c1.9,1.8,4.4,2.8,7,2.6
		c3.2,0.1,6.4-0.9,8.9-2.8L696.8,109.6z"/>
	<path class="st2" d="M769.2,52c5.2,5,7.8,12.4,7.8,22.3v39.1h-15.9v-37c0-5.9-1.4-10.4-4.2-13.5c-2.8-3-6.8-4.5-12-4.5
		c-5.9,0-10.5,1.8-13.9,5.3s-5.1,8.6-5.1,15.2v34.4h-15.9V18.7h15.9v34.4c2.7-2.9,6.1-5.1,9.8-6.4c4.1-1.5,8.5-2.3,12.9-2.2
		C757.1,44.5,764,47,769.2,52z"/>
</g>
</svg>
