<svg xmlns="http://www.w3.org/2000/svg" viewBox="0 0 803.64 141.73">
  <g>
    <path d="M159.07,89.29A70.94,70.94,0,1,0,20,63.52H32A58.78,58.78,0,0,1,145.23,49.93l-11.66,3.12a46.54,46.54,0,0,0-29-26.52l-2.15,12.13a34.31,34.31,0,0,1,2.77,63.26l3.19,11.9a46.52,46.52,0,0,0,28.33-49l11.62-3.1A57.94,57.94,0,0,1,147.27,85Z" transform="translate(-19.79 0)" fill="#5da545" fill-rule="evenodd"/>
    <path d="M108.92,139.3A70.93,70.93,0,0,1,19.79,76h12a59.48,59.48,0,0,0,1.78,9.91,58.73,58.73,0,0,0,3.63,9.91l10.68-6.41a46.58,46.58,0,0,1,44.72-65L90.43,36.54A34.38,34.38,0,0,0,57.36,79.75C57.67,80.88,58,82,58.43,83l13.66-8.19L68,63.93l12.9-13.25,16.31-3.51L101.9,53l-7.52,7.61-6.55,2.06-4.69,4.82,2.3,6.38s4.64,4.94,4.65,4.94l6.57-1.74,4.67-5.13,10.2-3.24,3,6.84L104.05,88.43,86.41,94l-7.92-8.81L64.7,93.48a34.44,34.44,0,0,0,28.72,11.59L96.61,117A46.6,46.6,0,0,1,54.13,99.83l-10.64,6.38a58.81,58.81,0,0,0,99.6-9.77l11.8,4.29A70.77,70.77,0,0,1,108.92,139.3Z" transform="translate(-19.79 0)" fill="#5da545"/>
  </g>
  <g>
    <path d="M303,37.57q7.51,7.45,7.52,22.37V99H294.54V62q0-8.91-4-13.45T279.24,44q-8,0-12.87,5.29t-4.85,15.11V99H245.59V62q0-8.91-4-13.45T230.29,44q-8.16,0-12.94,5.23t-4.78,15.17V99H196.64V30.88h15.17v8.67a24.68,24.68,0,0,1,9.56-7,32.33,32.33,0,0,1,12.74-2.43A30.83,30.83,0,0,1,247.69,33a22.07,22.07,0,0,1,9.37,8.48,28.41,28.41,0,0,1,10.83-8.35,35.16,35.16,0,0,1,14.66-3Q295.43,30.11,303,37.57Z" transform="translate(-19.79 0)" fill="#19202c"/>
    <path d="M343.49,95.38A32.4,32.4,0,0,1,330.55,83a35,35,0,0,1-4.66-18,34.69,34.69,0,0,1,4.66-18,32.57,32.57,0,0,1,12.94-12.36,41.25,41.25,0,0,1,37.35,0,32.61,32.61,0,0,1,12.93,12.36,34.69,34.69,0,0,1,4.66,18,35,35,0,0,1-4.66,18,32.44,32.44,0,0,1-12.93,12.43,41.33,41.33,0,0,1-37.35,0Zm33.14-15q5.73-5.86,5.74-15.42t-5.74-15.43a19.46,19.46,0,0,0-14.53-5.86,19.25,19.25,0,0,0-14.47,5.86Q342,55.36,342,64.92t5.67,15.42A19.25,19.25,0,0,0,362.1,86.2,19.46,19.46,0,0,0,376.63,80.34Z" transform="translate(-19.79 0)" fill="#19202c"/>
    <path d="M480.39,4.36V99H465.1V90.16a24.63,24.63,0,0,1-9.76,7.26,32.78,32.78,0,0,1-12.81,2.42,35.84,35.84,0,0,1-17.65-4.33,31.1,31.1,0,0,1-12.3-12.3,36.74,36.74,0,0,1-4.47-18.29,36.38,36.38,0,0,1,4.47-18.23,31.2,31.2,0,0,1,12.3-12.24,35.84,35.84,0,0,1,17.65-4.34,32.36,32.36,0,0,1,12.37,2.3,24.89,24.89,0,0,1,9.56,6.88V4.36ZM454.77,83.59A18.92,18.92,0,0,0,462,76.13a22.83,22.83,0,0,0,2.67-11.21A22.87,22.87,0,0,0,462,53.7a18.92,18.92,0,0,0-7.27-7.46,21.73,21.73,0,0,0-20.65,0,18.92,18.92,0,0,0-7.27,7.46,22.87,22.87,0,0,0-2.67,11.22,22.83,22.83,0,0,0,2.67,11.21,18.92,18.92,0,0,0,7.27,7.46,21.73,21.73,0,0,0,20.65,0Z" transform="translate(-19.79 0)" fill="#19202c"/>
    <path d="M540.69,30.11V45.28a20.64,20.64,0,0,0-3.7-.38q-9.3,0-14.53,5.42t-5.23,15.62V99H501.3V30.88h15.17v9.94Q523.35,30.11,540.69,30.11Z" transform="translate(-19.79 0)" fill="#19202c"/>
    <path d="M555,16.92A8.94,8.94,0,0,1,552,10.1,8.94,8.94,0,0,1,555,3.28,10.2,10.2,0,0,1,562.23.54a10.55,10.55,0,0,1,7.27,2.61,8.46,8.46,0,0,1,2.93,6.57,9.58,9.58,0,0,1-2.87,7.07,9.89,9.89,0,0,1-7.33,2.87A10.2,10.2,0,0,1,555,16.92Zm-.77,14h15.94V99H554.2Z" transform="translate(-19.79 0)" fill="#19202c"/>
    <path d="M650.32,37.64q7.77,7.52,7.77,22.3V99H642.16V62q0-8.91-4.21-13.45T626,44q-8.81,0-13.9,5.29T607,64.53V99H591V30.88h15.17v8.8a24.8,24.8,0,0,1,9.94-7.14,35.72,35.72,0,0,1,13.52-2.43Q642.54,30.11,650.32,37.64Z" transform="translate(-19.79 0)" fill="#19202c"/>
    <path d="M716.6,95.25a18.82,18.82,0,0,1-6.82,3.45,30.83,30.83,0,0,1-8.47,1.14Q690.09,99.84,684,94T677.85,76.9V15.84h15.94V31.39H712V44.14H693.79V76.52c0,3.31.82,5.84,2.48,7.58a9.14,9.14,0,0,0,7,2.61,14,14,0,0,0,8.92-2.8Z" transform="translate(-19.79 0)" fill="#19202c"/>
    <path d="M789,37.64q7.77,7.52,7.78,22.3V99H780.85V62q0-8.91-4.21-13.45t-12-4.52q-8.79,0-13.89,5.29t-5.1,15.23V99H729.73V4.36h15.94V38.78a25.8,25.8,0,0,1,9.75-6.43,35.75,35.75,0,0,1,12.94-2.24Q781.23,30.11,789,37.64Z" transform="translate(-19.79 0)" fill="#19202c"/>
  </g>
  <g>
    <path d="M171.21,107.17h9.6l9,34.56h-7.3l-1.82-7.92h-9.65l-1.82,7.92H162Zm8.16,21-2.64-11.38c-.09-.48-.19-1-.28-1.56s-.18-1.09-.25-1.61-.12-1.1-.19-1.68h-.28c-.07.58-.15,1.14-.25,1.68s-.13,1-.21,1.61a15.37,15.37,0,0,1-.31,1.56l-2.59,11.38Z" transform="translate(-19.79 0)" fill="#ed1c24"/>
    <path d="M202.08,107.17V135h14.16v6.72H194.88V107.17Z" transform="translate(-19.79 0)" fill="#ed1c24"/>
    <path d="M234.24,107.17a16,16,0,0,1,5.08.75,10.44,10.44,0,0,1,3.84,2.16,9.56,9.56,0,0,1,2.45,3.4,12,12,0,0,1,0,9,9.22,9.22,0,0,1-2.45,3.4,11,11,0,0,1-3.84,2.16,15.49,15.49,0,0,1-5.08.77h-4.9v13h-7.2V107.17Zm-4.9,15.6h4.9a5,5,0,0,0,3.72-1.32,5.25,5.25,0,0,0,0-7,5,5,0,0,0-3.72-1.32h-4.9Z" transform="translate(-19.79 0)" fill="#ed1c24"/>
    <path d="M251,141.73V107.17h7.2v13.25h8.16V107.17h7.2v34.56h-7.2V127.14h-8.16v14.59Z" transform="translate(-19.79 0)" fill="#ed1c24"/>
    <path d="M286.41,107.17H296l9,34.56h-7.3l-1.82-7.92h-9.65l-1.83,7.92H277.2Zm8.16,21-2.64-11.38c-.09-.48-.19-1-.29-1.56s-.17-1.09-.24-1.61-.13-1.1-.19-1.68h-.29q-.09.87-.24,1.68c-.06.52-.13,1-.21,1.61a15.37,15.37,0,0,1-.31,1.56l-2.6,11.38Z" transform="translate(-19.79 0)" fill="#ed1c24"/>
    <path d="M314.87,124.64a5.05,5.05,0,0,1,1.37-3.69,5.55,5.55,0,0,1,7.35,0,5,5,0,0,1,1.36,3.69,4.9,4.9,0,0,1-1.36,3.63,5.61,5.61,0,0,1-7.35,0A4.91,4.91,0,0,1,314.87,124.64Z" transform="translate(-19.79 0)" fill="#ed1c24"/>
    <path d="M344,107.17h9.6l9,34.56h-7.29l-1.83-7.92h-9.64L342,141.73h-7.25Zm8.16,21-2.64-11.38c-.1-.48-.19-1-.29-1.56s-.17-1.09-.24-1.61-.13-1.1-.19-1.68h-.29q-.09.87-.24,1.68c-.06.52-.13,1-.21,1.61a13,13,0,0,1-.32,1.56l-2.59,11.38Z" transform="translate(-19.79 0)" fill="#ed1c24"/>
    <path d="M374.87,107.17V135H389v6.72H367.67V107.17Z" transform="translate(-19.79 0)" fill="#ed1c24"/>
    <path d="M407,107.17a16.07,16.07,0,0,1,5.09.75,10.44,10.44,0,0,1,3.84,2.16,9.69,9.69,0,0,1,2.45,3.4,12.1,12.1,0,0,1,0,9,9.34,9.34,0,0,1-2.45,3.4,11,11,0,0,1-3.84,2.16,15.51,15.51,0,0,1-5.09.77h-4.89v13h-7.2V107.17Zm-4.89,15.6H407a5,5,0,0,0,3.72-1.32,5.25,5.25,0,0,0,0-7,5,5,0,0,0-3.72-1.32h-4.89Z" transform="translate(-19.79 0)" fill="#ed1c24"/>
    <path d="M423.83,141.73V107.17H431v13.25h8.16V107.17h7.2v34.56h-7.2V127.14H431v14.59Z" transform="translate(-19.79 0)" fill="#ed1c24"/>
    <path d="M459.21,107.17h9.6l9,34.56h-7.29l-1.83-7.92h-9.65l-1.82,7.92H450Zm8.16,21-2.64-11.38c-.1-.48-.19-1-.29-1.56s-.18-1.09-.24-1.61-.13-1.1-.19-1.68h-.29q-.09.87-.24,1.68c-.06.52-.14,1-.22,1.61a13,13,0,0,1-.31,1.56l-2.59,11.38Z" transform="translate(-19.79 0)" fill="#ed1c24"/>
    <path d="M487.67,124.64A5.05,5.05,0,0,1,489,121a5.54,5.54,0,0,1,7.34,0,5,5,0,0,1,1.37,3.69,4.87,4.87,0,0,1-1.37,3.63,5,5,0,0,1-8.71-3.63Z" transform="translate(-19.79 0)" fill="#ed1c24"/>
    <path d="M516.81,107.17h9.6l9,34.56h-7.29l-1.83-7.92h-9.65l-1.82,7.92h-7.25Zm8.16,21-2.64-11.38c-.1-.48-.19-1-.29-1.56s-.18-1.09-.24-1.61-.13-1.1-.19-1.68h-.29q-.09.87-.24,1.68c-.06.52-.14,1-.22,1.61a13,13,0,0,1-.31,1.56L518,128.2Z" transform="translate(-19.79 0)" fill="#ed1c24"/>
    <path d="M547.67,107.17V135h14.16v6.72H540.47V107.17Z" transform="translate(-19.79 0)" fill="#ed1c24"/>
    <path d="M579.83,107.17a16.11,16.11,0,0,1,5.09.75,10.6,10.6,0,0,1,3.84,2.16,9.81,9.81,0,0,1,2.45,3.4,12.1,12.1,0,0,1,0,9,9.46,9.46,0,0,1-2.45,3.4,11.22,11.22,0,0,1-3.84,2.16,15.55,15.55,0,0,1-5.09.77h-4.9v13h-7.2V107.17Zm-4.9,15.6h4.9a5,5,0,0,0,3.72-1.32,5.25,5.25,0,0,0,0-7,5,5,0,0,0-3.72-1.32h-4.9Z" transform="translate(-19.79 0)" fill="#ed1c24"/>
    <path d="M596.63,141.73V107.17h7.2v13.25H612V107.17h7.2v34.56H612V127.14h-8.16v14.59Z" transform="translate(-19.79 0)" fill="#ed1c24"/>
    <path d="M632,107.17h9.6l9,34.56h-7.3l-1.82-7.92h-9.65L630,141.73h-7.25Zm8.16,21-2.64-11.38c-.1-.48-.2-1-.29-1.56s-.18-1.09-.24-1.61-.13-1.1-.19-1.68h-.29q-.1.87-.24,1.68c-.07.52-.14,1-.22,1.61a13,13,0,0,1-.31,1.56l-2.59,11.38Z" transform="translate(-19.79 0)" fill="#ed1c24"/>
    <path d="M660.47,124.64a5.05,5.05,0,0,1,1.37-3.69,5.54,5.54,0,0,1,7.34,0,5.05,5.05,0,0,1,1.37,3.69,5,5,0,1,1-10.08,0Z" transform="translate(-19.79 0)" fill="#ed1c24"/>
    <path d="M689.6,107.17h9.6l9,34.56h-7.3l-1.82-7.92h-9.65l-1.82,7.92h-7.25Zm8.17,21-2.65-11.38c-.09-.48-.19-1-.28-1.56s-.18-1.09-.24-1.61-.13-1.1-.19-1.68h-.29q-.11.87-.24,1.68c-.07.52-.14,1-.22,1.61a13,13,0,0,1-.31,1.56l-2.59,11.38Z" transform="translate(-19.79 0)" fill="#ed1c24"/>
    <path d="M720.47,107.17V135h14.16v6.72H713.27V107.17Z" transform="translate(-19.79 0)" fill="#ed1c24"/>
    <path d="M752.63,107.17a16.11,16.11,0,0,1,5.09.75,10.6,10.6,0,0,1,3.84,2.16,9.66,9.66,0,0,1,2.44,3.4,12,12,0,0,1,0,9,9.31,9.31,0,0,1-2.44,3.4,11.22,11.22,0,0,1-3.84,2.16,15.55,15.55,0,0,1-5.09.77h-4.9v13h-7.2V107.17Zm-4.9,15.6h4.9a5,5,0,0,0,3.72-1.32,5.25,5.25,0,0,0,0-7,5,5,0,0,0-3.72-1.32h-4.9Z" transform="translate(-19.79 0)" fill="#ed1c24"/>
    <path d="M769.43,141.73V107.17h7.2v13.25h8.16V107.17H792v34.56h-7.2V127.14h-8.16v14.59Z" transform="translate(-19.79 0)" fill="#ed1c24"/>
    <path d="M804.8,107.17h9.6l9,34.56h-7.3l-1.82-7.92h-9.65l-1.83,7.92h-7.24Zm8.16,21-2.64-11.38c-.09-.48-.19-1-.29-1.56s-.17-1.09-.24-1.61-.12-1.1-.19-1.68h-.29q-.09.87-.24,1.68c-.06.52-.13,1-.21,1.61a15.37,15.37,0,0,1-.31,1.56L806,128.2Z" transform="translate(-19.79 0)" fill="#ed1c24"/>
  </g>
</svg>
