<?xml version="1.0" standalone="no"?>
<!DOCTYPE svg PUBLIC "-//W3C//DTD SVG 20010904//EN"
 "http://www.w3.org/TR/2001/REC-SVG-20010904/DTD/svg10.dtd">
<svg version="1.0" xmlns="http://www.w3.org/2000/svg"
 width="700.000000pt" height="700.000000pt" viewBox="0 0 700.000000 700.000000"
 preserveAspectRatio="xMidYMid meet">
<metadata>
Created by potrace 1.14, written by Peter Selinger 2001-2017
</metadata>
<g transform="translate(0.000000,700.000000) scale(0.100000,-0.100000)"
fill="#000000" stroke="none">
<path d="M3277 6994 c-1 -1 -40 -5 -87 -8 -95 -7 -110 -9 -325 -42 -163 -25
-543 -137 -692 -205 -24 -10 -45 -19 -48 -19 -10 0 -311 -150 -360 -180 -27
-17 -58 -33 -67 -36 -10 -4 -18 -10 -18 -15 0 -5 -5 -9 -11 -9 -9 0 -131 -78
-185 -119 -12 -9 -32 -23 -44 -31 -36 -24 -241 -190 -289 -234 -319 -293 -581
-637 -771 -1011 -42 -82 -82 -166 -90 -185 -7 -19 -19 -48 -26 -65 -108 -248
-210 -641 -240 -920 -26 -241 -25 -665 1 -826 2 -13 6 -46 10 -74 12 -96 16
-121 51 -278 32 -145 124 -449 158 -522 8 -16 26 -59 41 -95 224 -536 639
-1059 1130 -1426 205 -153 514 -331 700 -404 33 -13 78 -31 100 -41 158 -69
547 -177 707 -195 24 -3 50 -7 58 -9 20 -6 70 -12 155 -20 39 -4 90 -9 115
-12 61 -7 444 -7 500 1 25 3 74 8 110 11 102 9 105 10 102 31 -4 20 -80 287
-112 394 -11 36 -27 92 -36 125 -27 102 -32 118 -49 175 -9 30 -25 84 -35 120
l-19 65 -213 0 c-194 0 -309 6 -370 19 -13 3 -39 8 -58 10 -152 21 -410 97
-585 171 -172 73 -402 208 -550 322 -116 90 -169 138 -292 263 -67 68 -81 87
-71 97 17 16 128 83 139 83 5 0 9 5 9 10 0 6 5 10 10 10 6 0 29 12 53 27 23
15 51 31 62 37 11 6 87 52 168 101 81 50 165 100 185 112 20 12 53 31 72 43
19 11 52 31 73 43 20 12 85 51 144 86 l106 63 31 -34 c148 -164 197 -218 227
-252 18 -21 45 -51 59 -66 30 -32 145 -161 170 -190 10 -12 39 -44 65 -71 l47
-50 111 36 c62 19 171 54 242 76 72 23 162 52 200 64 39 13 144 46 235 75 91
28 249 78 352 111 l187 60 238 292 c282 346 419 514 442 542 9 12 38 47 65 78
l48 58 -22 52 c-23 53 -44 99 -99 220 -17 37 -31 69 -31 71 0 2 -18 42 -39 90
l-40 85 -73 -24 c-40 -13 -154 -49 -253 -80 -359 -113 -440 -140 -450 -150
-28 -30 -154 -167 -312 -343 -28 -31 -47 -38 -249 -92 -121 -32 -233 -61 -250
-64 -28 -6 -37 0 -150 120 -249 265 -221 225 -286 406 -33 90 -72 198 -88 240
l-28 77 177 182 176 181 100 32 c55 18 165 53 245 77 l145 44 280 283 c154
156 282 287 283 293 3 7 -60 93 -88 119 -4 4 -248 308 -255 318 -1 1 -24 -2
-51 -9 -27 -6 -60 -13 -73 -15 -14 -3 -151 -32 -305 -66 -155 -33 -330 -71
-391 -83 -215 -47 -259 -56 -338 -75 l-80 -18 -85 -89 c-47 -48 -223 -229
-391 -402 -301 -309 -394 -405 -459 -473 l-33 -35 44 -114 c24 -63 47 -123 52
-134 4 -11 9 -24 11 -30 1 -5 48 -129 103 -275 75 -197 98 -266 88 -272 -10
-8 -289 -176 -335 -203 -9 -6 -143 -86 -297 -178 -154 -93 -289 -174 -300
-180 -11 -7 -32 -20 -47 -30 -33 -21 -33 -21 -71 98 -43 135 -59 202 -92 380
-35 188 -40 634 -10 755 2 8 7 35 10 60 11 77 46 230 77 334 215 724 758 1330
1462 1630 166 71 427 146 586 170 94 14 225 26 314 31 54 2 99 5 101 7 1 2 14
82 29 178 15 96 29 187 32 203 2 15 7 42 10 60 3 17 7 47 10 66 2 19 6 46 9
60 12 72 15 94 30 186 8 55 17 114 20 132 l6 32 -181 -1 c-99 -1 -181 -2 -183
-4z"/>
<path d="M4546 6822 c-3 -9 -8 -35 -11 -57 -4 -22 -17 -107 -30 -190 -13 -82
-26 -170 -30 -195 -6 -47 -12 -81 -19 -115 -2 -11 -7 -42 -10 -70 -4 -27 -9
-57 -11 -65 -2 -8 -6 -37 -10 -65 -3 -27 -8 -57 -10 -65 -2 -8 -6 -32 -9 -52
-5 -35 -4 -37 32 -49 68 -22 275 -124 382 -189 549 -331 951 -844 1139 -1455
28 -91 58 -209 66 -260 2 -11 9 -52 15 -92 6 -40 14 -85 16 -100 3 -15 7 -134
9 -263 3 -189 0 -262 -15 -370 -25 -181 -92 -453 -139 -565 -5 -11 -23 -56
-41 -100 -81 -195 -224 -437 -355 -600 -231 -288 -547 -547 -855 -700 -30 -15
-56 -28 -57 -29 -2 -2 23 -91 72 -261 8 -27 28 -99 45 -160 17 -60 36 -123 41
-140 5 -16 28 -95 50 -175 23 -80 44 -148 48 -152 7 -8 247 106 371 177 135
78 415 267 450 305 3 3 34 30 70 60 199 167 388 368 550 585 270 362 466 768
578 1195 32 122 68 295 77 370 3 25 7 52 10 60 2 8 7 51 10 95 4 44 9 100 12
125 7 65 7 426 0 490 -4 30 -9 87 -12 125 -14 152 -88 522 -123 615 -5 14 -10
30 -11 35 -2 17 -43 137 -73 215 -130 335 -286 614 -496 890 -128 167 -333
386 -474 505 -39 33 -76 65 -82 70 -6 6 -45 36 -86 68 -41 31 -80 61 -86 66
-24 19 -223 149 -289 187 -167 99 -419 214 -617 282 -78 28 -88 29 -92 14z"/>
</g>
</svg>
