<svg viewBox="0 0 648 632">
  <path fill="var(--color-raised-bg)" d="M411 142H237a15 15 0 0 0-15 15v388l-2 1-43 13a8 8 0 0 1-10-6L39 137a8 8 0 0 1 6-10l66-20 191-58 66-20a8 8 0 0 1 10 5l33 106Z"/>
  <path fill="var(--color-text-light)" d="M449 140 410 12a17 17 0 0 0-21-11l-93 28-191 59-93 28a17 17 0 0 0-11 21l134 438a17 17 0 0 0 16 12 17 17 0 0 0 5 0l64-20 2-1v-2l-2 1-65 20a15 15 0 0 1-18-10L3 137a15 15 0 0 1 10-19l92-28 192-59 92-28a15 15 0 0 1 5-1 15 15 0 0 1 14 11l39 127 1 2h2Z"/>
  <path fill="var(--color-brand)" d="M123 128a9 9 0 0 1-9-7l-13-42a9 9 0 0 1 6-11l176-54a9 9 0 0 1 11 6l13 42a9 9 0 0 1-6 12l-176 53a9 9 0 0 1-2 1Z"/>
  <circle cx="190.2" cy="25" r="20" fill="var(--color-brand)"/>
  <circle cx="190.2" cy="25" r="12.7" fill="var(--color-raised-bg)"/>
  <path fill="var(--color-raised-bg)" d="M603 582H265a9 9 0 0 1-9-8V169a9 9 0 0 1 9-9h338a9 9 0 0 1 8 9v405a9 9 0 0 1-8 8Z"/>
  <path fill="var(--color-text-light)" d="M447 140H237a17 17 0 0 0-17 17v408l2-1V157a15 15 0 0 1 15-15h211Zm184 0H237a17 17 0 0 0-17 17v458a17 17 0 0 0 17 17h394a17 17 0 0 0 17-17V157a17 17 0 0 0-17-17Zm15 475a15 15 0 0 1-15 15H237a15 15 0 0 1-15-15V157a15 15 0 0 1 15-15h394a15 15 0 0 1 15 15Z"/>
  <path fill="var(--color-brand)" d="M526 184H342a9 9 0 0 1-9-9v-44a9 9 0 0 1 9-9h184a9 9 0 0 1 9 9v44a9 9 0 0 1-9 9Z"/>
  <circle cx="433.6" cy="105.2" r="20" fill="var(--color-brand)"/>
  <circle cx="433.6" cy="105.2" r="12.2" fill="var(--color-raised-bg)" />
</svg>
